<svg xmlns="http://www.w3.org/2000/svg" width="25" height="23"><defs><linearGradient id="a" x1="0%" y1="0%" y2="0%"><stop offset="0%" stop-color="#FF743C" stop-opacity=".95"/><stop offset="50%" stop-color="#E56555" stop-opacity=".95"/><stop offset="56%" stop-color="#E56555" stop-opacity=".95"/><stop offset="100%" stop-color="#E56555" stop-opacity=".95"/></linearGradient></defs><path fill-rule="evenodd" fill="#FFF" d="M24.795 1.155L10.32 15.233v.002a.704.704 0 0 1-.492.198.704.704 0 0 1-.492-.198l-3.988-3.878a.664.664 0 0 1 0-.958.71.71 0 0 1 .984 0l3.495 3.4L23.81.197a.712.712 0 0 1 .985 0 .666.666 0 0 1 0 .958zM19 2H4C2.657 2 2 3.694 2 5v14c0 1.306.657 2 2 2h15c1.343 0 2-.694 2-2V7c0-.374.835-.761 1.219-.761.385 0 .696.304.696.677v12.361c0 2.053-1.717 3.722-3.828 3.722H3.827C1.717 22.999 0 21.33 0 19.277V4.433C0 2.381 1.89 0 4 0h15c.385 0 .783 1.014.783 1.388 0 .374-.398.612-.783.612z"/><path fill="url(#a)" d="M24.795 1.155L10.32 15.233v.002a.704.704 0 0 1-.492.198.704.704 0 0 1-.492-.198l-3.988-3.878a.664.664 0 0 1 0-.958.71.71 0 0 1 .984 0l3.495 3.4L23.81.197a.712.712 0 0 1 .985 0 .666.666 0 0 1 0 .958zM19 2H4C2.657 2 2 3.694 2 5v14c0 1.306.657 2 2 2h15c1.343 0 2-.694 2-2V7c0-.374.835-.761 1.219-.761.385 0 .696.304.696.677v12.361c0 2.053-1.717 3.722-3.828 3.722H3.827C1.717 22.999 0 21.33 0 19.277V4.433C0 2.381 1.89 0 4 0h15c.385 0 .783 1.014.783 1.388 0 .374-.398.612-.783.612z"/></svg>