<svg xmlns="http://www.w3.org/2000/svg" width="22" height="22"><path fill-rule="evenodd" fill="#FFF" d="M21.545 10.441h-5.346V9.152c0-.378-.046-.745-.124-1.1a3.27 3.27 0 0 1 .804-.822 3.182 3.182 0 0 0 1.898.633c.711 0 1.362-.239 1.896-.63A3.519 3.519 0 0 1 22 9.986a.455.455 0 0 1-.455.455zm-2.768-3.868a1.934 1.934 0 0 1-1.933-1.933c0-1.066.867-1.933 1.933-1.933 1.067 0 1.934.867 1.934 1.933a1.935 1.935 0 0 1-1.934 1.933zm-7.133 9.024V11.73h3.895a22.277 22.277 0 0 1-.466 3.867h-3.429zm2.622-5.156H7.734a.638.638 0 0 1-.644-.645v-.49c0-1.36.675-2.639 1.745-3.372a3.987 3.987 0 0 0 4.332-.001c1.047.689 1.743 1.837 1.743 3.219v.644a.638.638 0 0 1-.644.645zM11 5.285c-1.422 0-2.621-1.156-2.621-2.578S9.578 0 11 0s2.621 1.285 2.621 2.707S12.422 5.285 11 5.285zm-.649 10.312H6.927a22.277 22.277 0 0 1-.466-3.867h3.89v3.867zm-4.55-5.156H0v-.455C0 8.894.513 7.87 1.327 7.233c.534.391 1.185.63 1.896.63.712 0 1.364-.239 1.898-.633.31.232.593.497.804.822a5.115 5.115 0 0 0-.124 1.1v1.289zM3.223 6.573A1.935 1.935 0 0 1 1.289 4.64c0-1.066.867-1.933 1.934-1.933 1.066 0 1.933.867 1.933 1.933a1.934 1.934 0 0 1-1.933 1.933zm2.384 9.024H.983a10.858 10.858 0 0 1-.95-3.867h5.14c.038 1.321.184 2.631.434 3.867zm2.51 6.164c-2.701-.727-4.987-2.561-6.439-4.875h4.236c.519 1.932 1.279 3.716 2.203 4.875zm2.234-4.875V22c-1.261-.52-2.41-2.598-3.114-5.114h3.114zM11.644 22v-5.114h3.118c-.703 2.516-1.857 4.594-3.118 5.114zm8.677-5.114c-1.451 2.314-3.738 4.148-6.438 4.875.924-1.159 1.683-2.943 2.203-4.875h4.235zm-3.494-5.156h5.14a10.858 10.858 0 0 1-.95 3.867h-4.624c.25-1.236.396-2.546.434-3.867z"/></svg>