<svg xmlns="http://www.w3.org/2000/svg" width="24" height="20"><path fill-rule="evenodd" fill="#7C2538" d="M20.14 20v-4.067h-1.637V1.791H24V20h-3.86zm1.864-16.063h-2.319v2.391h2.319V3.937zm0 3.842h-2.319v2.391h2.319V7.779zm0 3.842h-2.319v2.391h2.319v-2.391zm-8.73 3.912h-2.548V20H6.487V0h11.026v20h-4.239v-4.467zM11.226 2.357H8.678v2.626h2.548V2.357zm0 4.22H8.678v2.626h2.548V6.577zm0 4.22H8.678v2.626h2.548v-2.626zm4.096-8.44h-2.549v2.626h2.549V2.357zm0 4.22h-2.549v2.626h2.549V6.577zm0 4.22h-2.549v2.626h2.549v-2.626zM3.86 20H0V1.791h5.497v14.142H3.86V20zm.455-16.063h-2.32v2.391h2.32V3.937zm0 3.842h-2.32v2.391h2.32V7.779zm0 6.233v-2.391h-2.32v2.391h2.32z"/></svg>