<svg xmlns="http://www.w3.org/2000/svg" width="132" height="80"><path fill-rule="evenodd" fill="#FFF" d="M115.513 21.652l-19.652 9.86-19.117 40.867a1.578 1.578 0 0 1-.71.732c-2.938 1.516-4.753 2.469-6.509 3.39-1.723.904-3.505 1.837-6.361 3.313a1.662 1.662 0 0 1-1.496.018 1.556 1.556 0 0 1-.871-1.168l-4.065-27.522L29.87 64.611a1.672 1.672 0 0 1-1.806-.202L.556 41.556a1.523 1.523 0 0 1-.548-1.355 1.55 1.55 0 0 1 .857-1.198l11.257-5.65a1.675 1.675 0 0 1 1.515.009l15.989 8.279S96.393 7.878 110.578 2.447c.247-.1 6.099-2.447 11.477-2.447 5.114 0 7.387 2.158 8.393 3.968l.04.078c2.972 6.142-5.787 13.122-14.975 17.606zm-68.834 7.967l-7.212-8.385a1.507 1.507 0 0 1-.341-1.288c.092-.456.394-.849.819-1.07l14.02-7.266c.261-.136.558-.2.853-.185l25.451 1.301L46.9 29.478c-.08.04-.151.09-.221.141z"/></svg>