<svg xmlns="http://www.w3.org/2000/svg" width="64" height="59"><path fill-rule="evenodd" fill="#FFF" d="M61.873 47.487a3.023 3.023 0 0 1-4.245-.499l-10.31-13.059-10.167 7.252-.005.003a3.208 3.208 0 0 1-1.959.932 3.209 3.209 0 0 1-2.587-.929L19.478 28.013a3.755 3.755 0 0 1 .227-5.512l4.868-4.142a3.755 3.755 0 0 1 5.294.427l.555.652-5.259 1.88 8.336-.663 4.232-7.618a2.518 2.518 0 1 1 4.403 2.447l-4.887 8.798a2.518 2.518 0 0 1-2.002 1.288l-9.683.771 9.891 1.845a3.38 3.38 0 0 0 2.144-.314l2.946 3.463 5.609-3.999a3.022 3.022 0 0 1 4.127.588l12.093 15.317a3.024 3.024 0 0 1-.499 4.246zM42.128 9.61a5.142 5.142 0 0 0-6.692 2.152l-.996 1.795-1.479-11.963A1.223 1.223 0 0 1 34.4.243l9.03 1.705a1.221 1.221 0 0 1 .92 1.623L42.128 9.61zm-22.786 7.187a5.56 5.56 0 1 1 0-11.12 5.56 5.56 0 0 1 0 11.12zm-3.046 7.824a2.766 2.766 0 0 1-2.548.751l20.519 20.521 11.707-8.429a2.086 2.086 0 0 1 2.437 3.384l-11.157 8.034 5.765 5.764a2.086 2.086 0 0 1-2.949 2.949l-6.245-6.244-8.975 6.462a2.086 2.086 0 0 1-2.437-3.384l8.425-6.066L.75 18.272a2.086 2.086 0 0 1 2.949-2.949l.836.836a2.777 2.777 0 0 1 .751-2.549 2.782 2.782 0 0 1 3.932 0l7.078 7.079a2.78 2.78 0 0 1 0 3.932z"/></svg>