<svg xmlns="http://www.w3.org/2000/svg" width="67" height="62"><defs><linearGradient id="a" x1="0%" y1="0%" y2="0%"><stop offset="0%" stop-color="#FF743C" stop-opacity=".95"/><stop offset="50%" stop-color="#E56555" stop-opacity=".95"/><stop offset="56%" stop-color="#E56555" stop-opacity=".95"/><stop offset="100%" stop-color="#E56555" stop-opacity=".95"/></linearGradient></defs><path fill-rule="evenodd" fill="#611F2D" d="M64.578 42.082L46.866 55.676a10.538 10.538 0 0 1-6.427 2.178H12.57V33.061h18.842c1.156 0 2.094.926 2.094 2.066 0 5.706-4.686 10.33-10.468 10.33h14.533a6.34 6.34 0 0 0 3.856-1.305l15.442-11.853c2.73-2.102 6.683-1.618 8.81 1.088a6.142 6.142 0 0 1-1.101 8.695zM48.16 28.928c-3.463 0-6.28-2.781-6.28-6.198 0-3.418 2.817-6.199 6.28-6.199s6.281 2.781 6.281 6.199c0 3.417-2.818 6.198-6.281 6.198zm0-8.264c-1.151 0-2.093.925-2.093 2.066 0 1.14.942 2.066 2.093 2.066 1.152 0 2.094-.926 2.094-2.066 0-1.141-.942-2.066-2.094-2.066zm-15.136 7.521a2.098 2.098 0 0 1-1.612.743 2.1 2.1 0 0 1-1.34-.479 2.043 2.043 0 0 1-.259-2.914L50.748.743a2.12 2.12 0 0 1 2.948-.265 2.055 2.055 0 0 1 .263 2.913L33.024 28.185zm2.575-15.786c-3.463 0-6.281-2.781-6.281-6.198 0-3.417 2.818-6.199 6.281-6.199 3.463 0 6.281 2.782 6.281 6.199s-2.818 6.198-6.281 6.198zm0-8.264c-1.156 0-2.093.925-2.093 2.066 0 1.14.937 2.066 2.093 2.066s2.094-.926 2.094-2.066c0-1.141-.938-2.066-2.094-2.066zM6.29 61.986H2.103c-1.156 0-2.094-.925-2.094-2.066V30.994c0-1.14.938-2.066 2.094-2.066H6.29c1.155 0 2.093.926 2.093 2.066V59.92c0 1.141-.938 2.066-2.093 2.066z"/><path fill="url(#a)" d="M64.578 42.082L46.866 55.676a10.538 10.538 0 0 1-6.427 2.178H12.57V33.061h18.842c1.156 0 2.094.926 2.094 2.066 0 5.706-4.686 10.33-10.468 10.33h14.533a6.34 6.34 0 0 0 3.856-1.305l15.442-11.853c2.73-2.102 6.683-1.618 8.81 1.088a6.142 6.142 0 0 1-1.101 8.695zM48.16 28.928c-3.463 0-6.28-2.781-6.28-6.198 0-3.418 2.817-6.199 6.28-6.199s6.281 2.781 6.281 6.199c0 3.417-2.818 6.198-6.281 6.198zm0-8.264c-1.151 0-2.093.925-2.093 2.066 0 1.14.942 2.066 2.093 2.066 1.152 0 2.094-.926 2.094-2.066 0-1.141-.942-2.066-2.094-2.066zm-15.136 7.521a2.098 2.098 0 0 1-1.612.743 2.1 2.1 0 0 1-1.34-.479 2.043 2.043 0 0 1-.259-2.914L50.748.743a2.12 2.12 0 0 1 2.948-.265 2.055 2.055 0 0 1 .263 2.913L33.024 28.185zm2.575-15.786c-3.463 0-6.281-2.781-6.281-6.198 0-3.417 2.818-6.199 6.281-6.199 3.463 0 6.281 2.782 6.281 6.199s-2.818 6.198-6.281 6.198zm0-8.264c-1.156 0-2.093.925-2.093 2.066 0 1.14.937 2.066 2.093 2.066s2.094-.926 2.094-2.066c0-1.141-.938-2.066-2.094-2.066zM6.29 61.986H2.103c-1.156 0-2.094-.925-2.094-2.066V30.994c0-1.14.938-2.066 2.094-2.066H6.29c1.155 0 2.093.926 2.093 2.066V59.92c0 1.141-.938 2.066-2.093 2.066z"/></svg>