<svg xmlns="http://www.w3.org/2000/svg" width="72" height="80"><defs><linearGradient id="a" x1="0%" y1="0%" y2="0%"><stop offset="0%" stop-color="#FF743C" stop-opacity=".95"/><stop offset="50%" stop-color="#E56555" stop-opacity=".95"/><stop offset="56%" stop-color="#E56555" stop-opacity=".95"/><stop offset="100%" stop-color="#E56555" stop-opacity=".95"/></linearGradient></defs><path fill-rule="evenodd" fill="#FFF" d="M63.305 73H7.695A1.706 1.706 0 0 1 6 71.283V59.01c0-.948.759-1.717 1.695-1.717h15.64v9.227c0 .592.475 1.073 1.06 1.073.585 0 1.06-.481 1.06-1.073V50.256c0-.949.759-1.717 1.695-1.717h16.149c.936 0 1.695.768 1.695 1.717v6.527c-.008.055-.014.11-.014.167v9.57c0 .592.475 1.073 1.06 1.073.585 0 1.059-.481 1.059-1.073v-3.304h16.206c.936 0 1.695.768 1.695 1.716v6.351c0 .948-.759 1.717-1.695 1.717zM36.653 53.2h-1.207l-2.285 1.239.273 1.091 1.819-.994h.032v9.254h1.368V53.2zM47.638 8.057a1.961 1.961 0 0 1-.105.534l-6.207 13.12-.04 11.433s2.277 11.286 2.277 11.392c0 1.469-1.177 2.66-2.628 2.66l-.029-.001-.045.001a2.632 2.632 0 0 1-2.467-1.741 3.073 3.073 0 0 1-.258-.711c-.363-1.583-.719-3.168-1.081-4.751-.116-.456-.23-.911-.342-1.367-.203-.834-.396-1.669-.593-2.503-.187-.619-.417-1.277-.672-2.079-.256.802-.486 1.46-.672 2.079-.197.834-.391 1.669-.594 2.503-.111.456-.226.911-.341 1.367-.362 1.583-.718 3.168-1.082 4.751a3.071 3.071 0 0 1-.257.711 2.632 2.632 0 0 1-2.468 1.741l-.044-.001-.03.001c-1.451 0-2.627-1.191-2.627-2.66 0-.106 2.277-11.392 2.277-11.392l-.04-11.433-6.208-13.12a1.96 1.96 0 0 1-.104-.534l-.005-.011.004-.004-.001-.024-.003-.008.003-.002-.003-.063c0-1.075.86-1.946 1.921-1.946a1.93 1.93 0 0 1 1.901 1.66l3.483 6.695c.192.36.38.721.565 1.085l2.947 5.666.468-1.659-.933-1.839h3.684l-.933 1.839.469 1.659 2.947-5.666c.184-.364.373-.725.565-1.085l3.483-6.695a1.929 1.929 0 0 1 1.9-1.66c1.062 0 1.922.871 1.922 1.946l-.003.063.003.002-.003.009-.001.023.005.004-.005.011zM35.485 16.07l-.038-.001-.037.001c-2.117 0-3.834-1.738-3.834-3.882s1.717-3.881 3.834-3.881h.075c2.117 0 3.833 1.737 3.833 3.881 0 2.144-1.716 3.882-3.833 3.882z"/><path fill="url(#a)" d="M63.305 73H7.695A1.706 1.706 0 0 1 6 71.283V59.01c0-.948.759-1.717 1.695-1.717h15.64v9.227c0 .592.475 1.073 1.06 1.073.585 0 1.06-.481 1.06-1.073V50.256c0-.949.759-1.717 1.695-1.717h16.149c.936 0 1.695.768 1.695 1.717v6.527c-.008.055-.014.11-.014.167v9.57c0 .592.475 1.073 1.06 1.073.585 0 1.059-.481 1.059-1.073v-3.304h16.206c.936 0 1.695.768 1.695 1.716v6.351c0 .948-.759 1.717-1.695 1.717zM36.653 53.2h-1.207l-2.285 1.239.273 1.091 1.819-.994h.032v9.254h1.368V53.2zM47.638 8.057a1.961 1.961 0 0 1-.105.534l-6.207 13.12-.04 11.433s2.277 11.286 2.277 11.392c0 1.469-1.177 2.66-2.628 2.66l-.029-.001-.045.001a2.632 2.632 0 0 1-2.467-1.741 3.073 3.073 0 0 1-.258-.711c-.363-1.583-.719-3.168-1.081-4.751-.116-.456-.23-.911-.342-1.367-.203-.834-.396-1.669-.593-2.503-.187-.619-.417-1.277-.672-2.079-.256.802-.486 1.46-.672 2.079-.197.834-.391 1.669-.594 2.503-.111.456-.226.911-.341 1.367-.362 1.583-.718 3.168-1.082 4.751a3.071 3.071 0 0 1-.257.711 2.632 2.632 0 0 1-2.468 1.741l-.044-.001-.03.001c-1.451 0-2.627-1.191-2.627-2.66 0-.106 2.277-11.392 2.277-11.392l-.04-11.433-6.208-13.12a1.96 1.96 0 0 1-.104-.534l-.005-.011.004-.004-.001-.024-.003-.008.003-.002-.003-.063c0-1.075.86-1.946 1.921-1.946a1.93 1.93 0 0 1 1.901 1.66l3.483 6.695c.192.36.38.721.565 1.085l2.947 5.666.468-1.659-.933-1.839h3.684l-.933 1.839.469 1.659 2.947-5.666c.184-.364.373-.725.565-1.085l3.483-6.695a1.929 1.929 0 0 1 1.9-1.66c1.062 0 1.922.871 1.922 1.946l-.003.063.003.002-.003.009-.001.023.005.004-.005.011zM35.485 16.07l-.038-.001-.037.001c-2.117 0-3.834-1.738-3.834-3.882s1.717-3.881 3.834-3.881h.075c2.117 0 3.833 1.737 3.833 3.881 0 2.144-1.716 3.882-3.833 3.882z"/></svg>