<svg xmlns="http://www.w3.org/2000/svg" width="56" height="55"><defs><linearGradient id="a" x1="0%" y1="0%" y2="0%"><stop offset="0%" stop-color="#FF743C" stop-opacity=".95"/><stop offset="50%" stop-color="#E56555" stop-opacity=".95"/><stop offset="56%" stop-color="#E56555" stop-opacity=".95"/><stop offset="100%" stop-color="#E56555" stop-opacity=".95"/></linearGradient></defs><path fill-rule="evenodd" fill="#FFF" d="M53.545 38.884H41.949c-1.359 0-2.461-1.082-2.461-2.417 0-1.336 1.102-2.418 2.461-2.418h11.596c1.359 0 2.461 1.082 2.461 2.418 0 1.335-1.102 2.417-2.461 2.417zm0-8.059H41.949c-1.359 0-2.461-1.082-2.461-2.417 0-1.335 1.102-2.417 2.461-2.417h11.596c1.359 0 2.461 1.082 2.461 2.417 0 1.335-1.102 2.417-2.461 2.417zm.82-14.611h-1.641v1.719c0 .891-.734 1.612-1.641 1.612s-1.64-.721-1.64-1.612v-1.719h-1.641c-.907 0-1.641-.721-1.641-1.611 0-.891.734-1.612 1.641-1.612h1.641V11.38c0-.891.733-1.612 1.64-1.612.907 0 1.641.721 1.641 1.612v1.611h1.641c.907 0 1.641.721 1.641 1.612 0 .89-.734 1.611-1.641 1.611zm-9.955-13c-.906 0-1.641-.722-1.641-1.612 0-.889.735-1.611 1.641-1.611.907 0 1.641.722 1.641 1.611 0 .89-.734 1.612-1.641 1.612zm-8.204 25.194c0 1.579.668 3.005 1.736 4.03a5.568 5.568 0 0 0-1.736 4.029c0 1.579.668 3.004 1.736 4.028a5.572 5.572 0 0 0-1.736 4.029c0 1.579.668 3.004 1.736 4.03a5.568 5.568 0 0 0-1.736 4.029c0 .868.218 1.681.576 2.417h-4.711c-3.052 0-5.94-1.161-8.106-3.32l-.886-.871V25.991h1.642l3.563-3.5c2.993-2.939 4.64-8.567 4.64-12.723 0-1.777 1.473-3.223 3.282-3.223s3.282 1.446 3.282 3.223v4.053c0 3.717-.65 7.464-1.887 10.945-.857.986-1.395 2.247-1.395 3.642zm-7.459-18.96l-3.886 1.908-1.944 3.818c-.609 1.192-2.338 1.178-2.936 0l-1.942-3.818-3.887-1.908a1.606 1.606 0 0 1-.907-1.441c0-.611.351-1.169.907-1.442l3.887-1.907L19.981.84c.555-1.092 2.378-1.092 2.936 0l1.944 3.818 3.886 1.907c.556.274.907.831.907 1.442 0 .61-.351 1.168-.907 1.441zm-8.95 14.932v25.785c0 .89-.735 1.612-1.641 1.612h-4.923v1.611c0 .89-.734 1.612-1.641 1.612H1.638c-.907 0-1.641-.722-1.641-1.612V21.157c0-.891.734-1.612 1.641-1.612h9.954c.907 0 1.641.721 1.641 1.612v1.612h4.923c.906 0 1.641.72 1.641 1.611zM9.362 45.802a1.663 1.663 0 0 0-2.321 0 1.59 1.59 0 0 0 0 2.279c.641.63 1.68.63 2.321 0a1.59 1.59 0 0 0 0-2.279zm32.587-3.695h11.596c1.359 0 2.461 1.082 2.461 2.417 0 1.335-1.102 2.418-2.461 2.418H41.949c-1.359 0-2.461-1.083-2.461-2.418 0-1.335 1.102-2.417 2.461-2.417zm0 8.058h8.314c1.359 0 2.461 1.082 2.461 2.418 0 1.334-1.102 2.417-2.461 2.417h-8.314c-1.359 0-2.461-1.083-2.461-2.417 0-1.336 1.102-2.418 2.461-2.418z"/><path fill="url(#a)" d="M53.545 38.884H41.949c-1.359 0-2.461-1.082-2.461-2.417 0-1.336 1.102-2.418 2.461-2.418h11.596c1.359 0 2.461 1.082 2.461 2.418 0 1.335-1.102 2.417-2.461 2.417zm0-8.059H41.949c-1.359 0-2.461-1.082-2.461-2.417 0-1.335 1.102-2.417 2.461-2.417h11.596c1.359 0 2.461 1.082 2.461 2.417 0 1.335-1.102 2.417-2.461 2.417zm.82-14.611h-1.641v1.719c0 .891-.734 1.612-1.641 1.612s-1.64-.721-1.64-1.612v-1.719h-1.641c-.907 0-1.641-.721-1.641-1.611 0-.891.734-1.612 1.641-1.612h1.641V11.38c0-.891.733-1.612 1.64-1.612.907 0 1.641.721 1.641 1.612v1.611h1.641c.907 0 1.641.721 1.641 1.612 0 .89-.734 1.611-1.641 1.611zm-9.955-13c-.906 0-1.641-.722-1.641-1.612 0-.889.735-1.611 1.641-1.611.907 0 1.641.722 1.641 1.611 0 .89-.734 1.612-1.641 1.612zm-8.204 25.194c0 1.579.668 3.005 1.736 4.03a5.568 5.568 0 0 0-1.736 4.029c0 1.579.668 3.004 1.736 4.028a5.572 5.572 0 0 0-1.736 4.029c0 1.579.668 3.004 1.736 4.03a5.568 5.568 0 0 0-1.736 4.029c0 .868.218 1.681.576 2.417h-4.711c-3.052 0-5.94-1.161-8.106-3.32l-.886-.871V25.991h1.642l3.563-3.5c2.993-2.939 4.64-8.567 4.64-12.723 0-1.777 1.473-3.223 3.282-3.223s3.282 1.446 3.282 3.223v4.053c0 3.717-.65 7.464-1.887 10.945-.857.986-1.395 2.247-1.395 3.642zm-7.459-18.96l-3.886 1.908-1.944 3.818c-.609 1.192-2.338 1.178-2.936 0l-1.942-3.818-3.887-1.908a1.606 1.606 0 0 1-.907-1.441c0-.611.351-1.169.907-1.442l3.887-1.907L19.981.84c.555-1.092 2.378-1.092 2.936 0l1.944 3.818 3.886 1.907c.556.274.907.831.907 1.442 0 .61-.351 1.168-.907 1.441zm-8.95 14.932v25.785c0 .89-.735 1.612-1.641 1.612h-4.923v1.611c0 .89-.734 1.612-1.641 1.612H1.638c-.907 0-1.641-.722-1.641-1.612V21.157c0-.891.734-1.612 1.641-1.612h9.954c.907 0 1.641.721 1.641 1.612v1.612h4.923c.906 0 1.641.72 1.641 1.611zM9.362 45.802a1.663 1.663 0 0 0-2.321 0 1.59 1.59 0 0 0 0 2.279c.641.63 1.68.63 2.321 0a1.59 1.59 0 0 0 0-2.279zm32.587-3.695h11.596c1.359 0 2.461 1.082 2.461 2.417 0 1.335-1.102 2.418-2.461 2.418H41.949c-1.359 0-2.461-1.083-2.461-2.418 0-1.335 1.102-2.417 2.461-2.417zm0 8.058h8.314c1.359 0 2.461 1.082 2.461 2.418 0 1.334-1.102 2.417-2.461 2.417h-8.314c-1.359 0-2.461-1.083-2.461-2.417 0-1.336 1.102-2.418 2.461-2.418z"/></svg>