<svg xmlns="http://www.w3.org/2000/svg" width="29" height="28"><path fill-rule="evenodd" fill="#7B0D27" d="M28.484 15.538a1.656 1.656 0 0 1-1.175.486c-.424 0-.849-.161-1.174-.486L15.156 4.537c-.356-.355-.986-.355-1.344.001l-10.977 11a1.662 1.662 0 0 1-2.35 0 1.668 1.668 0 0 1 0-2.354L11.464 2.185c1.612-1.618 4.423-1.621 6.039-.003l3.269 3.275V3.703a1.661 1.661 0 1 1 3.321 0v5.081l4.391 4.4a1.666 1.666 0 0 1 0 2.354zM13.908 7.695a.814.814 0 0 1 1.154 0l9.655 9.673a.816.816 0 0 1 .239.578v7.055a2.995 2.995 0 0 1-2.992 2.997h-4.781V20.58h-5.397v7.418H7.005a2.994 2.994 0 0 1-2.992-2.997v-7.055c0-.217.086-.426.239-.578l9.656-9.673z"/></svg>