<svg xmlns="http://www.w3.org/2000/svg" width="19" height="19"><path fill-rule="evenodd" fill="#FCA35C" d="M13.756 18.998H5.243A5.25 5.25 0 0 1 0 13.756V5.241A5.25 5.25 0 0 1 5.243-.003h8.513A5.25 5.25 0 0 1 19 5.241v8.515a5.25 5.25 0 0 1-5.244 5.242zm3.244-5V4.999c0-1.963-1.038-3-3-3H5c-1.962 0-3 1.037-3 3v7.999c0 1.961 1.038 4 3 4h9c1.962 0 3.314-1.282 3.314-3.242l-.314.242zm-2.399-8.354c-.325 0-.644-.132-.873-.361a1.244 1.244 0 0 1-.363-.875 1.24 1.24 0 0 1 1.236-1.237 1.239 1.239 0 0 1 .874 2.112c-.23.229-.548.361-.874.361zM9.5 14.392a4.9 4.9 0 0 1-4.896-4.896A4.902 4.902 0 0 1 9.5 4.601a4.902 4.902 0 0 1 4.896 4.895A4.901 4.901 0 0 1 9.5 14.392zm0-8.105c-1.77 0-3.21 1.44-3.21 3.209a3.215 3.215 0 0 0 3.21 3.212c1.77 0 3.21-1.441 3.21-3.212A3.213 3.213 0 0 0 9.5 6.287z"/></svg>