<svg xmlns="http://www.w3.org/2000/svg" width="16" height="16"><path fill-rule="evenodd" fill="#FFF" d="M14.537 8.536c-.975.975-2.154 1.462-3.537 1.462a4.765 4.765 0 0 1-1.704-.296l-2.203 2.204a.325.325 0 0 1-.241.092H5v1.667a.32.32 0 0 1-.333.333H3v1.667c0 .099-.031.18-.093.241a.323.323 0 0 1-.24.092H.333a.321.321 0 0 1-.24-.092.324.324 0 0 1-.093-.241v-2.519c0-.098.031-.178.093-.24l6.203-6.203A4.766 4.766 0 0 1 6 4.998c0-1.382.488-2.561 1.463-3.537C8.438.486 9.617-.001 11-.001s2.562.487 3.537 1.462C15.512 2.437 16 3.616 16 4.998c0 1.384-.488 2.562-1.463 3.538zM11.5 2.999a1.5 1.5 0 1 0 0 3 1.5 1.5 0 0 0 0-3z"/></svg>