<svg xmlns="http://www.w3.org/2000/svg" width="21" height="21"><path fill-rule="evenodd" fill="#FFF" d="M20.385 21h-4.348v-8.151l2.127-.776.237.475a.618.618 0 0 0 .533.34c.257-.012.439-.113.552-.31l1.433-2.507a.605.605 0 0 0 .068-.346l.013.036v10.623a.61.61 0 0 1-.615.616zm.076-11.845l-2.865-.359c-.222-.023-.489.071-.62.255a.615.615 0 0 0-.048.631l.093.185-6.367 2.315-.81-.654V10.5a5.53 5.53 0 0 1 2.349-4.514 4.37 4.37 0 0 0 3.229 1.437 4.37 4.37 0 0 0 3.228-1.436 5.545 5.545 0 0 1 2.236 3.445.608.608 0 0 0-.425-.277zm-5.039-2.962c-1.696 0-3.117-1.38-3.117-3.076C12.305 1.421 13.726 0 15.422 0s3.117 1.421 3.117 3.117-1.421 3.076-3.117 3.076zm-7.424 1.23a2.463 2.463 0 0 1-2.461-2.461 2.464 2.464 0 0 1 2.461-2.461 2.464 2.464 0 0 1 2.461 2.461 2.463 2.463 0 0 1-2.461 2.461zm.918 1.101a6.72 6.72 0 0 0-.303 1.976v.034l-.548-.444a1.252 1.252 0 0 0-1.233-.076l-3.141 1.57V10.5c0-1.282.574-2.421 1.465-3.211a3.669 3.669 0 0 0 2.842 1.365c.319 0 .623-.053.918-.13zm-6.455 1.36A1.848 1.848 0 0 1 .615 8.039c0-1.018.828-1.846 1.846-1.846.573 0 1.079.268 1.418.679a5.496 5.496 0 0 0-1.351 3.005c-.022.001-.044.007-.067.007zm0 1.7c0 .199.04.387.098.567L0 13.43v-1.7c0-.525.143-1.012.377-1.443.549.51 1.278.828 2.084.828v.469zM3.691 21H.615A.61.61 0 0 1 0 20.384V16.183l3.691-1.847V21zm6.153-6.4V21H4.922v-7.279l2.372-1.186 2.55 2.065zm4.963 6.4h-3.733v-6.317l3.733-1.375V21z"/></svg>