<svg xmlns="http://www.w3.org/2000/svg" width="18" height="17"><path fill-rule="evenodd" fill="#FFF" d="M18 10.421v6.577h-4v-6c0-1.541-.416-2.73-1.812-2.73-1.066 0-1.701.709-1.98 1.395-.102.245-.128.586-.128.93v6.405H6c-.015-.145.029-11.152 0-11.999h4l.08 2.155-.026.037h.026v-.037c.512-.781 1.428-1.896 3.477-1.896 2.54 0 4.443 1.64 4.443 5.163zM2.184-.001C.864-.001 0 .854 0 1.98c0 1.101.839 1.983 2.133 1.983h.025c1.346 0 2.183-.882 2.183-1.983C4.316.854 3.504-.001 2.184-.001zM0 16.998h4.087L4 4.999H0v11.999z"/></svg>