<svg xmlns="http://www.w3.org/2000/svg" width="20" height="20"><path fill-rule="evenodd" fill="#7C2538" d="M19.548 15.825l-3.087-3.097c-.615-.614-1.634-.595-2.27.043l-1.556 1.56-.307-.172c-.982-.545-2.327-1.293-3.742-2.713-1.418-1.423-2.165-2.773-2.711-3.759-.058-.104-.113-.205-.168-.301l1.045-1.045.513-.515c.637-.64.655-1.661.041-2.277L4.218.452c-.613-.615-1.632-.596-2.27.043l-.87.878.024.023a5.034 5.034 0 0 0-.717 1.269 5.247 5.247 0 0 0-.319 1.286c-.408 3.389 1.137 6.488 5.328 10.691 5.795 5.81 10.464 5.371 10.666 5.35a5.19 5.19 0 0 0 2.547-1.041l.019.017.881-.865c.637-.64.655-1.661.041-2.278z"/></svg>