<svg xmlns="http://www.w3.org/2000/svg" width="45" height="45"><path fill-rule="evenodd" fill="#FFF" d="M22.501-.001C10.078-.001-.001 10.064-.001 22.489c0 12.436 10.079 22.514 22.502 22.514 12.431 0 22.502-10.078 22.502-22.514 0-12.425-10.071-22.49-22.502-22.49zm1.604 35.01a2.645 2.645 0 0 1-1.814.699c-.71 0-1.329-.23-1.858-.689-.529-.459-.795-1.103-.795-1.928 0-.733.257-1.35.768-1.85.512-.5 1.14-.75 1.885-.75.732 0 1.349.25 1.85.75.5.5.75 1.117.75 1.85 0 .813-.263 1.453-.786 1.918zm6.517-16.155a8 8 0 0 1-1.431 1.928c-.552.541-1.544 1.451-2.976 2.73-.395.36-.712.678-.95.951a3.779 3.779 0 0 0-.532.75 3.714 3.714 0 0 0-.271.681c-.063.227-.159.625-.288 1.195-.221 1.21-.913 1.814-2.076 1.814-.605 0-1.113-.196-1.527-.592-.413-.396-.619-.982-.619-1.762 0-.976.152-1.823.454-2.539a6.446 6.446 0 0 1 1.203-1.885c.501-.541 1.175-1.183 2.025-1.927a35.824 35.824 0 0 0 1.614-1.475c.332-.332.61-.701.837-1.108a2.66 2.66 0 0 0 .339-1.325c0-.931-.344-1.716-1.037-2.355s-1.585-.96-2.679-.96c-1.28 0-2.222.323-2.827.968-.605.646-1.115 1.596-1.535 2.853-.396 1.314-1.147 1.972-2.25 1.972-.652 0-1.202-.23-1.65-.689-.447-.459-.671-.956-.671-1.492 0-1.104.355-2.224 1.064-3.359.71-1.134 1.746-2.073 3.107-2.817 1.36-.744 2.949-1.117 4.762-1.117 1.686 0 3.175.312 4.466.934 1.291.621 2.289 1.468 2.993 2.539a6.23 6.23 0 0 1 1.055 3.489c.002.987-.198 1.853-.6 2.598z"/></svg>