<svg xmlns="http://www.w3.org/2000/svg" width="17" height="17"><path fill-rule="evenodd" fill="#FFF" d="M16.502 11.985h-1.527V9.494a.498.498 0 0 0-.498-.497H8.998V7.004h3.486a.497.497 0 0 0 .498-.498V.497a.497.497 0 0 0-.498-.498H4.516a.497.497 0 0 0-.498.498v6.009c0 .276.222.498.498.498h3.486v1.993H2.523a.498.498 0 0 0-.498.497v2.491H.498a.497.497 0 0 0-.498.498v4.018c0 .275.223.497.498.497h4.018a.497.497 0 0 0 .498-.497v-4.018a.497.497 0 0 0-.498-.498H3.021V9.992h4.981v1.993H6.508a.497.497 0 0 0-.498.498v4.018c0 .275.223.497.498.497h3.984a.497.497 0 0 0 .498-.497v-4.018a.497.497 0 0 0-.498-.498H8.998V9.992h4.981v1.993h-1.495a.497.497 0 0 0-.498.498v4.018c0 .275.223.497.498.497h4.018a.497.497 0 0 0 .498-.497v-4.018a.497.497 0 0 0-.498-.498zM6.508 2.024h3.984a.498.498 0 1 1 0 .997H6.508a.499.499 0 0 1 0-.997zm0 2.988a.498.498 0 1 1 0-.996h3.984a.498.498 0 1 1 0 .996H6.508z"/></svg>