<svg xmlns="http://www.w3.org/2000/svg" width="19" height="23"><path fill-rule="evenodd" fill="#FFF" d="M16.071 16.819H14.82l.006-.734c0-.326.265-.592.589-.592h.08c.325 0 .591.266.591.592l-.015.734zm-4.693-1.572c-.318 0-.577.216-.577.479v3.566c0 .263.259.478.577.478.318 0 .578-.215.578-.478v-3.566c0-.263-.26-.479-.578-.479zM19 13.253v6.783c0 1.628-1.399 2.96-3.109 2.96H3.108c-1.71 0-3.108-1.332-3.108-2.96v-6.783c0-1.627 1.289-2.258 3-2.258h13c1.709 0 3 .631 3 2.258zM4 20.995v-7h2v-.999H1v.999h2v7h1zm4.711-6.303L8 14.995v4c0 .554-.577.34-.612.437-.108.296-.2 1.142-.388.564-.032-.102 0-.476 0-1.001v-4H6v3.001c.001.578-.018 1.802 0 2 .032.347-.319.769 0 .999 1.469-.129 1.715-.382 2-.999v.999h1v-6l-.289-.303zm4.226 4.369l-.002-3.175c-.002-1.21-.899-1.935-2.118-.957L11 12.996h-1v7.999l.582-.29.098-.508c1.388 1.283 2.259.404 2.257-1.136zm4.135-.42l-.991.006-.002.135v.556c0 .3-.245.541-.541.541h-.194a.542.542 0 0 1-.542-.541v-1.466h2.268v-.86c0-.63-.016-1.26-.067-1.619-.163-1.139-1.746-1.319-2.547-.737a1.508 1.508 0 0 0-.554.753c-.113.327-.168.774-.168 1.342v1.895c0 3.147 3.79 2.702 3.338-.005zM11.991 8.36a.908.908 0 0 0 .317.405c.142.1.324.15.541.15a.83.83 0 0 0 .506-.159c.146-.106.27-.265.371-.476l-.025.522h1.472V2.484h-1.159v4.918a.485.485 0 0 1-.483.483.486.486 0 0 1-.483-.483V2.484h-1.209v4.261c0 .544.009.905.025 1.088.017.183.059.357.127.527zM7.528 4.792c0-.607.05-1.08.15-1.422.1-.338.28-.614.541-.819.26-.208.593-.311.998-.311.341 0 .633.068.877.199.245.133.434.305.565.518.134.215.224.433.273.659.049.226.073.569.073 1.034v1.598c0 .586-.023 1.017-.068 1.29-.045.274-.141.53-.291.768a1.37 1.37 0 0 1-.566.525 1.78 1.78 0 0 1-.799.171c-.336 0-.619-.047-.852-.145a1.18 1.18 0 0 1-.543-.439 1.94 1.94 0 0 1-.276-.707c-.056-.278-.082-.694-.082-1.247V4.792zm1.153 2.509c0 .358.264.651.586.651.321 0 .584-.293.584-.651V3.94c0-.358-.263-.65-.584-.65-.322 0-.586.292-.586.65v3.361zM4.606 9h1.389l.001-4.846L7.638.003H6.119l-.873 3.085-.885-3.092H2.857l1.746 4.16L4.606 9z"/></svg>